<mxfile host="app.diagrams.net" modified="2024-03-12T09:32:36.861Z" agent="Mozilla/5.0 (Windows NT 10.0; Win64; x64) AppleWebKit/537.36 (KHTML, like Gecko) Chrome/122.0.0.0 Safari/537.36" etag="fVZU7maVwLzVaS9I0JH8" version="24.0.4" type="github">
  <diagram name="Page-1" id="TjMmhmXX_nkEW2uMKh0l">
    <mxGraphModel dx="712" dy="736" grid="1" gridSize="10" guides="1" tooltips="1" connect="1" arrows="1" fold="1" page="1" pageScale="1" pageWidth="850" pageHeight="1100" math="0" shadow="0">
      <root>
        <mxCell id="0" />
        <mxCell id="1" parent="0" />
        <mxCell id="Hb_w-71gTEsSOU4h53yj-3" value="" style="edgeStyle=orthogonalEdgeStyle;rounded=0;orthogonalLoop=1;jettySize=auto;html=1;" edge="1" parent="1" source="Hb_w-71gTEsSOU4h53yj-1" target="Hb_w-71gTEsSOU4h53yj-2">
          <mxGeometry relative="1" as="geometry" />
        </mxCell>
        <mxCell id="Hb_w-71gTEsSOU4h53yj-1" value="start" style="rounded=1;whiteSpace=wrap;html=1;" vertex="1" parent="1">
          <mxGeometry x="360" y="40" width="90" height="30" as="geometry" />
        </mxCell>
        <mxCell id="Hb_w-71gTEsSOU4h53yj-5" value="" style="edgeStyle=orthogonalEdgeStyle;rounded=0;orthogonalLoop=1;jettySize=auto;html=1;" edge="1" parent="1" source="Hb_w-71gTEsSOU4h53yj-2" target="Hb_w-71gTEsSOU4h53yj-4">
          <mxGeometry relative="1" as="geometry" />
        </mxCell>
        <mxCell id="Hb_w-71gTEsSOU4h53yj-2" value="Read The Assignment Date" style="shape=parallelogram;perimeter=parallelogramPerimeter;whiteSpace=wrap;html=1;fixedSize=1;rounded=1;arcSize=0;" vertex="1" parent="1">
          <mxGeometry x="250" y="135" width="310" height="60" as="geometry" />
        </mxCell>
        <mxCell id="Hb_w-71gTEsSOU4h53yj-7" value="" style="edgeStyle=orthogonalEdgeStyle;rounded=0;orthogonalLoop=1;jettySize=auto;html=1;" edge="1" parent="1" source="Hb_w-71gTEsSOU4h53yj-4" target="Hb_w-71gTEsSOU4h53yj-6">
          <mxGeometry relative="1" as="geometry" />
        </mxCell>
        <mxCell id="Hb_w-71gTEsSOU4h53yj-4" value="Read THe Due Date" style="shape=parallelogram;perimeter=parallelogramPerimeter;whiteSpace=wrap;html=1;fixedSize=1;rounded=1;arcSize=0;" vertex="1" parent="1">
          <mxGeometry x="280" y="275" width="250" height="60" as="geometry" />
        </mxCell>
        <mxCell id="Hb_w-71gTEsSOU4h53yj-9" value="" style="edgeStyle=orthogonalEdgeStyle;rounded=0;orthogonalLoop=1;jettySize=auto;html=1;" edge="1" parent="1" source="Hb_w-71gTEsSOU4h53yj-6" target="Hb_w-71gTEsSOU4h53yj-8">
          <mxGeometry relative="1" as="geometry" />
        </mxCell>
        <mxCell id="Hb_w-71gTEsSOU4h53yj-6" value="Read The Number Of Questions" style="shape=parallelogram;perimeter=parallelogramPerimeter;whiteSpace=wrap;html=1;fixedSize=1;rounded=1;arcSize=0;" vertex="1" parent="1">
          <mxGeometry x="280" y="415" width="250" height="60" as="geometry" />
        </mxCell>
        <mxCell id="Hb_w-71gTEsSOU4h53yj-8" value="Calculate the number of date" style="rounded=1;whiteSpace=wrap;html=1;arcSize=0;" vertex="1" parent="1">
          <mxGeometry x="290" y="555" width="230" height="60" as="geometry" />
        </mxCell>
      </root>
    </mxGraphModel>
  </diagram>
</mxfile>
